<svg width="220" height="43" viewBox="0 0 220 43" fill="none" xmlns="http://www.w3.org/2000/svg">
<path d="M10.3516 42.1648H0V1.55464H2.50259L5.9152 5.4981C7.58359 3.98138 9.46685 2.81857 11.565 2.00965C13.6884 1.17546 15.9003 0.758359 18.2006 0.758359C20.6779 0.758359 23.0162 1.23865 25.2154 2.19924C27.4147 3.13455 29.3359 4.4364 30.979 6.10479C32.6221 7.7479 33.9113 9.68172 34.8466 11.9062C35.8072 14.1055 36.2875 16.4564 36.2875 18.959V42.1648H25.9359V18.959C25.9359 17.8973 25.7337 16.8988 25.3292 15.9635C24.9247 15.0029 24.3686 14.1687 23.6608 13.4609C22.953 12.7531 22.1314 12.1969 21.1961 11.7925C20.2608 11.388 19.2623 11.1858 18.2006 11.1858C17.1136 11.1858 16.0899 11.388 15.1293 11.7925C14.1687 12.1969 13.3345 12.7531 12.6267 13.4609C11.9189 14.1687 11.3627 15.0029 10.9583 15.9635C10.5538 16.8988 10.3516 17.8973 10.3516 18.959V42.1648Z" fill="white"/>
<path d="M98.9659 42.1648L83.4953 1.55464H95.2878L104.161 26.8838L112.996 1.55464H124.826L109.355 42.1648H98.9659Z" fill="white"/>
<path d="M143.709 32.2303C144.114 32.3567 144.518 32.4451 144.922 32.4957C145.327 32.521 145.731 32.5336 146.136 32.5336C147.147 32.5336 148.12 32.3946 149.055 32.1165C149.991 31.8384 150.863 31.4466 151.672 30.9411C152.506 30.4102 153.239 29.7782 153.871 29.0452C154.528 28.2868 155.059 27.4526 155.464 26.5426L163.047 34.1641C162.087 35.5291 160.974 36.7551 159.71 37.8421C158.472 38.9291 157.119 39.8518 155.653 40.6101C154.212 41.3685 152.683 41.9373 151.065 42.3164C149.473 42.7209 147.829 42.9231 146.136 42.9231C143.279 42.9231 140.587 42.3923 138.059 41.3306C135.557 40.2689 133.357 38.7901 131.462 36.8942C129.591 34.9983 128.112 32.7485 127.025 30.1448C125.938 27.5158 125.395 24.634 125.395 21.4995C125.395 18.2891 125.938 15.3568 127.025 12.7025C128.112 10.0483 129.591 7.78582 131.462 5.9152C133.357 4.04458 135.557 2.59106 138.059 1.55464C140.587 0.518214 143.279 0 146.136 0C147.829 0 149.485 0.202231 151.103 0.606689C152.721 1.01115 154.25 1.59255 155.691 2.35091C157.157 3.10927 158.522 4.04458 159.786 5.15684C161.05 6.24383 162.162 7.46984 163.123 8.83488L143.709 32.2303ZM149.018 10.8825C148.537 10.7055 148.057 10.5918 147.577 10.5412C147.122 10.4906 146.641 10.4654 146.136 10.4654C144.72 10.4654 143.38 10.7308 142.116 11.2616C140.878 11.7672 139.791 12.5003 138.856 13.4609C137.946 14.4215 137.225 15.5843 136.694 16.9493C136.163 18.2891 135.898 19.8058 135.898 21.4995C135.898 21.8787 135.911 22.3084 135.936 22.7887C135.986 23.269 136.05 23.7619 136.125 24.2675C136.227 24.7478 136.34 25.2154 136.467 25.6705C136.593 26.1255 136.757 26.5299 136.96 26.8838L149.018 10.8825Z" fill="white"/>
<path d="M220 42.1648H209.686V16.3806C209.686 15.6728 209.547 15.0029 209.269 14.3709C209.016 13.7389 208.65 13.1828 208.17 12.7025C207.689 12.2222 207.133 11.8557 206.501 11.6029C205.869 11.3248 205.199 11.1858 204.492 11.1858C203.784 11.1858 203.114 11.3248 202.482 11.6029C201.875 11.8557 201.332 12.2222 200.851 12.7025C200.396 13.1828 200.03 13.7389 199.752 14.3709C199.499 15.0029 199.373 15.6728 199.373 16.3806V42.1648H189.021V16.3806C189.021 15.6728 188.882 15.0029 188.604 14.3709C188.351 13.7389 187.985 13.1828 187.504 12.7025C187.024 12.2222 186.468 11.8557 185.836 11.6029C185.204 11.3248 184.534 11.1858 183.826 11.1858C183.118 11.1858 182.449 11.3248 181.817 11.6029C181.21 11.8557 180.666 12.2222 180.186 12.7025C179.731 13.1828 179.365 13.7389 179.087 14.3709C178.834 15.0029 178.707 15.6728 178.707 16.3806V42.1648H168.356V1.55464H170.858L173.664 4.66391C175.105 3.45053 176.685 2.51523 178.404 1.85798C180.148 1.17546 181.956 0.834194 183.826 0.834194C185.722 0.834194 187.567 1.1881 189.362 1.8959C191.182 2.6037 192.775 3.82971 194.14 5.57394C194.772 4.71447 195.492 3.98139 196.301 3.3747C197.11 2.76801 197.957 2.27508 198.842 1.8959C199.752 1.51672 200.687 1.25129 201.648 1.09962C202.608 0.922672 203.556 0.834194 204.492 0.834194C206.64 0.834194 208.65 1.23866 210.52 2.04757C212.416 2.85649 214.06 3.96875 215.45 5.38435C216.865 6.77467 217.978 8.41779 218.787 10.3137C219.596 12.2096 220 14.2319 220 16.3806V42.1648Z" fill="white"/>
<path d="M82.642 21.5026C82.642 24.536 82.0985 27.3672 81.0115 29.9962C79.9246 32.5999 78.4457 34.8623 76.5751 36.7835C74.7045 38.6794 72.5053 40.1835 69.9774 41.2957C67.4748 42.3827 64.7826 42.9262 61.9009 42.9262C59.0444 42.9262 56.3522 42.3827 53.8243 41.2957C51.3218 40.1835 49.1225 38.6794 47.2266 36.7835C45.356 34.8623 43.8772 32.5999 42.7902 29.9962C41.7032 27.3672 41.1598 24.536 41.1598 21.5026C41.1598 18.4186 41.7032 15.5621 42.7902 12.9331C43.8772 10.3041 45.356 8.04168 47.2266 6.14578C49.1225 4.2246 51.3218 2.72052 53.8243 1.63354C56.3522 0.54656 59.0444 0.00306922 61.9009 0.00306922C64.7826 0.00306922 67.4748 0.521283 69.9774 1.55771C72.5053 2.56885 74.7045 4.02237 76.5751 5.91827C78.4457 7.78889 79.9246 10.0513 81.0115 12.7056C82.0985 15.3346 82.642 18.2669 82.642 21.5026ZM72.2146 21.5026C72.2146 19.8342 71.9365 18.3301 71.3804 16.9903C70.8495 15.6253 70.1164 14.4625 69.1811 13.5019C68.2458 12.516 67.1462 11.7703 65.8823 11.2647C64.6436 10.7339 63.3165 10.4684 61.9009 10.4684C60.4853 10.4684 59.1455 10.7339 57.8816 11.2647C56.6429 11.7703 55.5559 12.516 54.6206 13.5019C53.7106 14.4625 52.9902 15.6253 52.4593 16.9903C51.9285 18.3301 51.663 19.8342 51.663 21.5026C51.663 23.0698 51.9285 24.5233 52.4593 25.8631C52.9902 27.2029 53.7106 28.3657 54.6206 29.3516C55.5559 30.3374 56.6429 31.1211 57.8816 31.7025C59.1455 32.2586 60.4853 32.5367 61.9009 32.5367C63.3165 32.5367 64.6436 32.2713 65.8823 31.7404C67.1462 31.2095 68.2458 30.4638 69.1811 29.5032C70.1164 28.5427 70.8495 27.3798 71.3804 26.0148C71.9365 24.6497 72.2146 23.1457 72.2146 21.5026Z" fill="white"/>
<path d="M72.8591 0.473389C75.3177 1.80158 77.5003 3.60903 79.2825 5.79252C81.0648 7.97601 82.4116 10.4928 83.2462 13.1992L63.1252 19.5044L72.8591 0.473389Z" fill="url(#paint0_linear_640_21)"/>
<defs>
<linearGradient id="paint0_linear_640_21" x1="73.1857" y1="0.473389" x2="73.1857" y2="19.5044" gradientUnits="userSpaceOnUse">
<stop stop-color="#73ABFF"/>
<stop offset="1" stop-color="#00FFF0"/>
</linearGradient>
</defs>
</svg>
